<svg xmlns="http://www.w3.org/2000/svg" viewBox="0 0 1200 340" width="1200" height="340" role="img" aria-label="HygroPilot: ESP8266 PID humidity controller">
<defs>
<linearGradient id="bg" x1="0" y1="0" x2="1" y2="1"><stop offset="0" stop-color="#050817"/><stop offset=".55" stop-color="#0d1a4a"/><stop offset="1" stop-color="#1b1055"/></linearGradient>
<linearGradient id="w1" x1="0" y1="0" x2="0" y2="1"><stop offset="0" stop-color="#38e1ff"/><stop offset="1" stop-color="#2dd4bf"/></linearGradient>
<linearGradient id="w2" x1="0" y1="0" x2="0" y2="1"><stop offset="0" stop-color="#a78bfa"/><stop offset="1" stop-color="#38e1ff"/></linearGradient>
<linearGradient id="dr" x1="0" y1="0" x2="1" y2="1"><stop offset="0" stop-color="#38e1ff"/><stop offset="1" stop-color="#a78bfa"/></linearGradient>
<radialGradient id="glow"><stop offset="0" stop-color="#38e1ff" stop-opacity=".35"/><stop offset="1" stop-color="#38e1ff" stop-opacity="0"/></radialGradient>
<clipPath id="c"><rect width="1200" height="340" rx="22"/></clipPath>
</defs>
<g clip-path="url(#c)">
<rect width="1200" height="340" fill="url(#bg)"/>
<circle cx="150" cy="150" r="200" fill="url(#glow)"><animate attributeName="r" values="180;220;180" dur="6s" repeatCount="indefinite"/></circle>
<path d="M-300,268 q75.0,-14 150.0,0 t150.0,0 q75.0,-14 150.0,0 t150.0,0 q75.0,-14 150.0,0 t150.0,0 q75.0,-14 150.0,0 t150.0,0 q75.0,-14 150.0,0 t150.0,0 q75.0,-14 150.0,0 t150.0,0 q75.0,-14 150.0,0 t150.0,0 q75.0,-14 150.0,0 t150.0,0 V360 H-300 Z" fill="url(#w2)" opacity="0.35"><animateTransform attributeName="transform" type="translate" from="0 0" to="300 0" dur="9s" repeatCount="indefinite"/></path>
<path d="M-240,282 q60.0,-12 120.0,0 t120.0,0 q60.0,-12 120.0,0 t120.0,0 q60.0,-12 120.0,0 t120.0,0 q60.0,-12 120.0,0 t120.0,0 q60.0,-12 120.0,0 t120.0,0 q60.0,-12 120.0,0 t120.0,0 q60.0,-12 120.0,0 t120.0,0 q60.0,-12 120.0,0 t120.0,0 q60.0,-12 120.0,0 t120.0,0 V360 H-240 Z" fill="url(#w1)" opacity="0.5"><animateTransform attributeName="transform" type="translate" from="0 0" to="240 0" dur="6s" repeatCount="indefinite"/></path>
<path d="M-200,300 q50.0,-10 100.0,0 t100.0,0 q50.0,-10 100.0,0 t100.0,0 q50.0,-10 100.0,0 t100.0,0 q50.0,-10 100.0,0 t100.0,0 q50.0,-10 100.0,0 t100.0,0 q50.0,-10 100.0,0 t100.0,0 q50.0,-10 100.0,0 t100.0,0 q50.0,-10 100.0,0 t100.0,0 q50.0,-10 100.0,0 t100.0,0 q50.0,-10 100.0,0 t100.0,0 V360 H-200 Z" fill="url(#w1)" opacity="0.75"><animateTransform attributeName="transform" type="translate" from="0 0" to="200 0" dur="4.5s" repeatCount="indefinite"/></path>
<circle cx="703" cy="350" r="5.8" fill="none" stroke="#9beeff" stroke-opacity=".5"><animate attributeName="cy" from="350" to="-10" dur="7.0s" begin="0.4s" repeatCount="indefinite"/><animate attributeName="opacity" values="0;.9;0" dur="7.0s" begin="0.4s" repeatCount="indefinite"/></circle><circle cx="1137" cy="350" r="2.4" fill="none" stroke="#9beeff" stroke-opacity=".5"><animate attributeName="cy" from="350" to="-10" dur="7.9s" begin="7.3s" repeatCount="indefinite"/><animate attributeName="opacity" values="0;.9;0" dur="7.9s" begin="7.3s" repeatCount="indefinite"/></circle><circle cx="479" cy="350" r="2.1" fill="none" stroke="#9beeff" stroke-opacity=".5"><animate attributeName="cy" from="350" to="-10" dur="7.2s" begin="0.6s" repeatCount="indefinite"/><animate attributeName="opacity" values="0;.9;0" dur="7.2s" begin="0.6s" repeatCount="indefinite"/></circle><circle cx="225" cy="350" r="4.2" fill="none" stroke="#9beeff" stroke-opacity=".5"><animate attributeName="cy" from="350" to="-10" dur="5.3s" begin="4.5s" repeatCount="indefinite"/><animate attributeName="opacity" values="0;.9;0" dur="5.3s" begin="4.5s" repeatCount="indefinite"/></circle><circle cx="497" cy="350" r="4.5" fill="none" stroke="#9beeff" stroke-opacity=".5"><animate attributeName="cy" from="350" to="-10" dur="7.9s" begin="0.5s" repeatCount="indefinite"/><animate attributeName="opacity" values="0;.9;0" dur="7.9s" begin="0.5s" repeatCount="indefinite"/></circle><circle cx="852" cy="350" r="2.2" fill="none" stroke="#9beeff" stroke-opacity=".5"><animate attributeName="cy" from="350" to="-10" dur="6.1s" begin="4.5s" repeatCount="indefinite"/><animate attributeName="opacity" values="0;.9;0" dur="6.1s" begin="4.5s" repeatCount="indefinite"/></circle><circle cx="312" cy="350" r="3.2" fill="none" stroke="#9beeff" stroke-opacity=".5"><animate attributeName="cy" from="350" to="-10" dur="5.7s" begin="0.9s" repeatCount="indefinite"/><animate attributeName="opacity" values="0;.9;0" dur="5.7s" begin="0.9s" repeatCount="indefinite"/></circle><circle cx="671" cy="350" r="4.2" fill="none" stroke="#9beeff" stroke-opacity=".5"><animate attributeName="cy" from="350" to="-10" dur="8.4s" begin="0.8s" repeatCount="indefinite"/><animate attributeName="opacity" values="0;.9;0" dur="8.4s" begin="0.8s" repeatCount="indefinite"/></circle><circle cx="424" cy="350" r="3.5" fill="none" stroke="#9beeff" stroke-opacity=".5"><animate attributeName="cy" from="350" to="-10" dur="7.7s" begin="0.5s" repeatCount="indefinite"/><animate attributeName="opacity" values="0;.9;0" dur="7.7s" begin="0.5s" repeatCount="indefinite"/></circle><circle cx="162" cy="350" r="4.5" fill="none" stroke="#9beeff" stroke-opacity=".5"><animate attributeName="cy" from="350" to="-10" dur="7.5s" begin="4.3s" repeatCount="indefinite"/><animate attributeName="opacity" values="0;.9;0" dur="7.5s" begin="4.3s" repeatCount="indefinite"/></circle><circle cx="683" cy="350" r="3.9" fill="none" stroke="#9beeff" stroke-opacity=".5"><animate attributeName="cy" from="350" to="-10" dur="9.6s" begin="2.9s" repeatCount="indefinite"/><animate attributeName="opacity" values="0;.9;0" dur="9.6s" begin="2.9s" repeatCount="indefinite"/></circle><circle cx="548" cy="350" r="5.2" fill="none" stroke="#9beeff" stroke-opacity=".5"><animate attributeName="cy" from="350" to="-10" dur="8.5s" begin="2.0s" repeatCount="indefinite"/><animate attributeName="opacity" values="0;.9;0" dur="8.5s" begin="2.0s" repeatCount="indefinite"/></circle><circle cx="654" cy="350" r="4.1" fill="none" stroke="#9beeff" stroke-opacity=".5"><animate attributeName="cy" from="350" to="-10" dur="9.4s" begin="5.8s" repeatCount="indefinite"/><animate attributeName="opacity" values="0;.9;0" dur="9.4s" begin="5.8s" repeatCount="indefinite"/></circle><circle cx="629" cy="350" r="4.4" fill="none" stroke="#9beeff" stroke-opacity=".5"><animate attributeName="cy" from="350" to="-10" dur="5.4s" begin="4.1s" repeatCount="indefinite"/><animate attributeName="opacity" values="0;.9;0" dur="5.4s" begin="4.1s" repeatCount="indefinite"/></circle><circle cx="377" cy="350" r="5.0" fill="none" stroke="#9beeff" stroke-opacity=".5"><animate attributeName="cy" from="350" to="-10" dur="5.8s" begin="3.9s" repeatCount="indefinite"/><animate attributeName="opacity" values="0;.9;0" dur="5.8s" begin="3.9s" repeatCount="indefinite"/></circle><circle cx="120" cy="350" r="5.8" fill="none" stroke="#9beeff" stroke-opacity=".5"><animate attributeName="cy" from="350" to="-10" dur="5.4s" begin="4.5s" repeatCount="indefinite"/><animate attributeName="opacity" values="0;.9;0" dur="5.4s" begin="4.5s" repeatCount="indefinite"/></circle>
<g transform="translate(150 150)">
<g><animateTransform attributeName="transform" type="translate" values="0 0;0 -6;0 0" dur="3.5s" repeatCount="indefinite"/>
<path d="M0,-96 C0,-96 62,-22 62,26 A62,62 0 0 1 -62,26 C-62,-22 0,-96 0,-96Z" fill="url(#dr)" opacity=".95"/>
<path d="M-28,10 A32,32 0 0 0 -8,50" stroke="#fff" stroke-opacity=".55" stroke-width="6" stroke-linecap="round" fill="none"/></g>
</g>
<text x="270" y="140" font-family="'Segoe UI',system-ui,-apple-system,Roboto,Arial,sans-serif" font-size="78" font-weight="700" fill="#eaf2ff" letter-spacing="-1">Hygro<tspan fill="#38e1ff">Pilot</tspan></text>
<text x="274" y="186" font-family="'Segoe UI',system-ui,-apple-system,Roboto,Arial,sans-serif" font-size="27" fill="#a3b3d1">An ESP8266 humidity controller that tunes itself.</text>
<g font-family="'Segoe UI',system-ui,-apple-system,Roboto,Arial,sans-serif" font-size="17" font-weight="600">
<rect x="274" y="212" width="112" height="34" rx="17" fill="#fff" fill-opacity=".08" stroke="#fff" stroke-opacity=".18"/><text x="330.0" y="234" text-anchor="middle" fill="#38e1ff">PID control</text>
<rect x="396" y="212" width="122" height="34" rx="17" fill="#fff" fill-opacity=".08" stroke="#fff" stroke-opacity=".18"/><text x="457.0" y="234" text-anchor="middle" fill="#a78bfa">Auto-tune</text>
<rect x="528" y="212" width="142" height="34" rx="17" fill="#fff" fill-opacity=".08" stroke="#fff" stroke-opacity=".18"/><text x="599.0" y="234" text-anchor="middle" fill="#2dd4bf">Wi-Fi dashboard</text>
<rect x="680" y="212" width="120" height="34" rx="17" fill="#fff" fill-opacity=".08" stroke="#fff" stroke-opacity=".18"/><text x="740.0" y="234" text-anchor="middle" fill="#fbbf24">OLED + log</text>
</g>
</g>
</svg>